<svg xmlns="http://www.w3.org/2000/svg" width="56.693" height="56.693" viewBox="-19.843 -19.843 56.693 56.693"><path d="M7.358 36.313c-.181 0-.363-.041-.529-.13l-.041-.021-20.33-11.79a1.12 1.12 0 0 1-.535-.708L-18.144 7.19a1.139 1.139 0 0 1 .538-1.254l16.007-9.208 6.232-13.416a4.533 4.533 0 0 1 2.75-2.415 4.597 4.597 0 0 1 3.641.398l13.798 7.97a4.518 4.518 0 0 1 1.849 5.843l-.119.253L34.618.039c.401.23.62.683.552 1.139l-2.907 20.488a1.11 1.11 0 0 1-.558.82L8.076 36.077c-.194.153-.463.266-.711.235.005.001 0 .001-.007.001zm-.801-5.529c.509 0 .974.351 1.098.865l.444 1.801 22-12.652 2.723-19.185L24.523-3.2a1.121 1.121 0 0 1-.538-.749c-.007 0-.007.003-.007.003-.307.094-.633.06-.912-.102l-9.354-5.416L2.375-2.938a1.145 1.145 0 0 1-1.333-.146 2.109 2.109 0 0 1-.149-.168l-.585 1.26c-.098.21-.258.389-.46.508l-15.584 8.96 3.748 15.18L5.623 32.864l-.164-.671a1.128 1.128 0 0 1 .831-1.368.891.891 0 0 1 .267-.041zm7.16-42.694c.193 0 .391.053.568.153l8.839 5.124a.584.584 0 0 0-.272-.691L9.05-15.291a.589.589 0 0 0-.478-.048.612.612 0 0 0-.359.313L4.344-6.688l8.807-5.068c.174-.101.371-.154.566-.154z"/><path fill="#FFF" d="M3.294 18.708l4.064 16.478 23.786-13.687L34.05 1.014z"/><path d="M7.358 35.468a.227.227 0 0 1-.111-.027.276.276 0 0 1-.164-.19L3.02 18.776a.28.28 0 0 1 .136-.313L33.914.771a.281.281 0 0 1 .299.01.282.282 0 0 1 .123.275l-2.907 20.487a.296.296 0 0 1-.139.207L7.504 35.434a.363.363 0 0 1-.146.034zM3.623 18.852l3.924 15.901 23.334-13.431L33.692 1.55 3.623 18.852z"/><path fill="#FFF" d="M-12.976 23.392L7.358 35.186 3.294 18.708-17.043 6.921z"/><path d="M7.358 35.468a.292.292 0 0 1-.143-.04l-20.333-11.784a.28.28 0 0 1-.131-.181l-4.067-16.479a.282.282 0 0 1 .104-.293.275.275 0 0 1 .31-.017L3.434 18.463a.28.28 0 0 1 .133.178l4.067 16.48a.285.285 0 0 1-.104.293.31.31 0 0 1-.172.054zM-12.73 23.215L6.926 34.607 3.047 18.899-16.607 7.5l3.877 15.715z"/><path fill="#FFF" d="M-17.043 6.921L3.294 18.708 34.05 1.014 13.717-10.772z"/><path d="M3.294 18.994a.283.283 0 0 1-.143-.041l-20.337-11.79a.282.282 0 0 1-.143-.245c0-.097.056-.194.143-.243l30.759-17.692a.286.286 0 0 1 .282 0L34.193.771a.292.292 0 0 1 .143.243.285.285 0 0 1-.143.244L3.434 18.953a.255.255 0 0 1-.14.041zM-16.475 6.921l19.769 11.46L33.485 1.018 13.717-10.446-16.475 6.921z"/><path fill="#FFF" d="M13.373-8.177L-12.543 6.734l13.82 8.012 9.383-5.401z"/><path d="M1.277 15.029a.303.303 0 0 1-.143-.038l-13.821-8.014a.29.29 0 0 1-.143-.243c0-.103.056-.196.143-.249L13.236-8.421a.282.282 0 0 1 .3.01.3.3 0 0 1 .122.279l-2.72 17.52a.27.27 0 0 1-.139.203L1.42 14.995a.345.345 0 0 1-.143.034zm-13.252-8.295L1.277 14.42l9.12-5.254 2.611-16.802-24.983 14.37z"/><path fill="#FFF" d="M1.277 14.746l2.356 1.369 9.358-5.385-2.331-1.385z"/><path d="M3.633 16.394a.25.25 0 0 1-.143-.037l-2.355-1.365a.288.288 0 0 1-.143-.245c0-.102.054-.193.143-.245L10.514 9.1a.286.286 0 0 1 .286 0l2.331 1.386c.085.051.14.146.14.245s-.055.193-.143.241l-9.359 5.381c-.039.034-.087.041-.136.041zm-1.792-1.648l1.792 1.038 8.797-5.054-1.773-1.059-8.816 5.075z"/><path fill="#FFF" d="M13.373-8.177L10.66 9.345l2.331 1.385 16.56-9.527z"/><path d="M12.991 11.016a.292.292 0 0 1-.146-.044l-2.331-1.384a.286.286 0 0 1-.137-.289l2.717-17.517a.286.286 0 0 1 .422-.203L29.694.954a.29.29 0 0 1 .143.245.288.288 0 0 1-.143.244l-16.559 9.532a.328.328 0 0 1-.144.041zm-2.025-1.818l2.025 1.202 15.99-9.2-15.39-8.923-2.625 16.921z"/><path fill="#FFF" d="M18.117 9.679a.837.837 0 0 1-.763-1.191l6.767-14.566a1.722 1.722 0 0 0-.704-2.223L9.613-16.27a1.735 1.735 0 0 0-1.384-.15 1.738 1.738 0 0 0-1.045.917L.616-1.356a.842.842 0 0 1-1.117.408.837.837 0 0 1-.407-1.115l6.573-14.151a3.427 3.427 0 0 1 2.059-1.809 3.427 3.427 0 0 1 2.735.299l13.799 7.968a3.383 3.383 0 0 1 1.385 4.384L18.88 9.191a.839.839 0 0 1-.763.488z"/><path d="M18.117 9.961c-.163 0-.32-.037-.47-.104a1.105 1.105 0 0 1-.582-.635 1.094 1.094 0 0 1 .037-.858L23.866-6.2a1.438 1.438 0 0 0-.586-1.858L9.479-16.026a1.468 1.468 0 0 0-1.161-.124c-.384.121-.705.4-.875.766L.869-1.234c-.25.541-.944.802-1.487.544a1.126 1.126 0 0 1-.549-1.492l6.574-14.151a3.712 3.712 0 0 1 2.233-1.962 3.76 3.76 0 0 1 2.961.325L24.4-10.003a3.673 3.673 0 0 1 1.505 4.751L19.139 9.313a1.136 1.136 0 0 1-1.022.648zM8.754-16.785c.354 0 .703.09 1.006.269L23.563-8.55a2 2 0 0 1 .816 2.59L17.617 8.603a.535.535 0 0 0-.018.424.57.57 0 0 0 .286.315.57.57 0 0 0 .742-.27l6.767-14.566a3.108 3.108 0 0 0-1.273-4.018L10.316-17.48a3.176 3.176 0 0 0-2.504-.276 3.139 3.139 0 0 0-1.892 1.665L-.651-1.942a.56.56 0 0 0 .269.739c.267.123.613 0 .739-.271l6.572-14.151a2.062 2.062 0 0 1 1.217-1.071 2.13 2.13 0 0 1 .608-.089z"/></svg>