<svg xmlns="http://www.w3.org/2000/svg" width="56.693" height="56.693" viewBox="126.863 126.863 56.693 56.693"><path fill="#213B74" d="M134.354 165.738c-8.652-8.652-8.652-22.732 0-31.385 8.653-8.653 22.732-8.653 31.385 0 7.341 7.341 8.453 18.258 3.339 26.784 0 0-.367.615.129 1.111l11.322 11.322c2.253 2.254 2.79 5.405.791 7.404l-.344.344c-1.998 1.998-5.149 1.462-7.403-.791l-11.299-11.299c-.521-.521-1.136-.153-1.136-.153-8.526 5.115-19.444 4.004-26.784-3.337zm27.288-4.097c6.394-6.393 6.393-16.796-.001-23.189-6.393-6.394-16.796-6.394-23.189 0-6.394 6.393-6.394 16.796 0 23.189 6.393 6.393 16.796 6.393 23.19 0z"/><path fill="#213B74" d="M160.225 148.729a2.29 2.29 0 0 0 2.109-3.183c-3.098-7.322-11.576-10.759-18.898-7.66a2.291 2.291 0 0 0 1.785 4.219c4.996-2.114 10.78.231 12.894 5.227a2.29 2.29 0 0 0 2.11 1.397z"/></svg>