<svg xmlns="http://www.w3.org/2000/svg" width="368.504" height="255.118" viewBox="235.693 171.081 368.504 255.118"><g fill="#FFF"><path d="M595.66 371.058h-15.379c-.496-2.58-1.189-4.365-2.281-5.357-1.688-1.688-4.465-2.48-8.334-2.48s-6.449.596-7.938 1.885c-1.09.992-1.686 2.281-1.686 3.969 0 2.381 3.273 4.168 9.623 5.654 7.342 1.588 12.6 2.977 15.875 4.068.893.299 1.586.596 2.082.893 6.549 3.076 9.723 7.74 9.723 13.99 0 7.639-3.174 13.195-9.523 16.766-.793.398-1.588.795-2.381 1.191-4.068 1.785-8.83 2.68-14.188 2.68-8.037 0-14.486-1.391-19.445-4.268-3.076-1.785-5.457-4.066-6.945-6.846-1.588-2.777-2.283-5.953-2.283-9.623h16.172c0 2.777.992 4.961 2.977 6.449 1.984 1.588 5.357 2.381 10.021 2.381 3.57 0 6.25-.793 7.938-2.281 1.389-1.191 1.984-2.48 1.984-3.969 0-2.48-3.176-4.465-9.525-5.854-9.426-1.984-15.379-3.672-17.859-4.861-6.447-2.977-9.623-7.74-9.623-14.188 0-5.16 1.688-9.625 5.061-13.195 4.266-4.564 10.615-6.748 19.049-6.748 6.945 0 12.5.992 16.768 2.977.396.199.693.299.992.496 2.975 1.688 5.258 3.869 6.846 6.549 1.486 2.677 2.279 5.953 2.279 9.722zm-8.235-37.601c0-.299-.1-.596-.199-.795-.197-.297-.396-.396-.693-.496-.199-.098-.496-.098-.992-.197h-2.481v2.977h2.48c.693-.1 1.189-.199 1.389-.396.297-.3.496-.697.496-1.093zm1.289-1.588c.299.396.496.893.496 1.389 0 .695-.297 1.389-.793 1.885s-1.191.895-2.084.895c.396.197.596.297.893.496l1.488 1.982 1.191 1.984h-1.885l-.895-1.586c-.594-.992-1.09-1.787-1.488-2.084l-.197-.199-1.291-.396h-.992v4.266h-1.586v-10.02h3.473c.197 0 .396.1.594.1.895 0 1.488.098 1.887.297.396.198.892.495 1.189.991z"/><path d="M593.179 335.441c0-1.389-.297-2.68-.992-3.869a7.998 7.998 0 0 0-2.877-2.877c-1.191-.596-2.48-.992-3.77-.992h-.1c-1.291 0-2.58.396-3.77.992a7.988 7.988 0 0 0-2.879 2.877c-.693 1.189-1.09 2.48-1.09 3.869 0 1.289.396 2.578 1.09 3.869.596 1.189 1.588 2.084 2.779 2.777 1.189.695 2.48.992 3.869.992h.1c1.289 0 2.578-.297 3.869-.992 1.189-.693 2.182-1.686 2.777-2.777a8.003 8.003 0 0 0 .994-3.869zm1.588 0c0 1.588-.396 3.074-1.191 4.563-.793 1.488-1.885 2.58-3.373 3.375-1.488.893-2.977 1.189-4.564 1.189h-.098c-1.588 0-3.076-.396-4.564-1.189-1.488-.795-2.58-1.887-3.373-3.375-.893-1.488-1.191-2.975-1.191-4.563 0-1.688.396-3.176 1.191-4.664.893-1.488 1.984-2.578 3.473-3.373 1.488-.793 2.977-1.189 4.465-1.189h.098c1.588 0 3.076.396 4.564 1.189 1.488.795 2.68 1.885 3.473 3.373.694 1.488 1.09 2.976 1.09 4.664zm-90.385-75.006l43.655 72.625h-70.045l-41.668-69.45-31.551-52.484 31.551-18.95 19.842-11.905zm31.651 123.025v29.764h-14.486v-3.275a31.002 31.002 0 0 1-16.965 5.061h-.199c-17.262-.1-31.35-14.188-31.35-31.549 0-17.264 14.088-31.451 31.35-31.551h.199c6.25 0 12.104 1.885 16.965 5.061v-3.473h14.486v29.962zm-14.487 3.373v-6.549c-1.586-7.938-8.631-13.988-16.965-13.988h-.199c-9.523.098-17.162 7.838-17.162 17.262 0 9.525 7.738 17.264 17.162 17.363h.199c8.434 0 15.477-6.15 16.965-14.088zm-53.574-3.373v29.764h-14.486v-3.275c-4.959 3.176-10.715 5.061-16.965 5.061h-.197c-17.264-.1-31.352-14.188-31.352-31.549 0-17.264 14.088-31.451 31.352-31.551h.197c6.25 0 12.104 1.885 16.965 5.061v-23.91h14.486v50.399zm-14.486 3.373v-6.549c-1.586-7.938-8.631-13.988-16.965-13.988h-.197c-9.525.098-17.165 7.838-17.165 17.262 0 9.525 7.739 17.264 17.165 17.363h.197c8.334 0 15.479-6.15 16.965-14.088zm-17.162-82.347l17.162 28.574h-70.044l-38.891-64.688-1.687-2.778 1.687-.992 49.804-29.962zm-52.782 47.523h15.775v61.314h-15.775zm0-18.652h15.775v13.891h-15.775zm-7.243 50.103v29.764h-14.485v-3.275c-4.96 3.176-10.814 5.061-17.064 5.061h-.199c-17.263-.1-31.351-14.188-31.351-31.549 0-17.264 14.088-31.451 31.351-31.551h.199c6.25 0 12.104 1.885 17.064 5.061v-23.91h14.485v50.399zm-14.486 3.373v-6.549c-1.587-7.938-8.631-13.988-17.064-13.988h-.199c-9.524.098-17.164 7.838-17.164 17.262 0 9.525 7.738 17.264 17.164 17.363h.199c8.433 0 15.477-6.15 17.064-14.088zm-17.262-77.685l14.386 23.912h-70.045l-7.838-13.098 51.392-30.953zm-37.007 74.312v29.764h-14.485v-3.275c-4.96 3.176-10.814 5.061-17.064 5.061h-.198c-17.263-.1-31.352-14.188-31.352-31.549 0-17.264 14.088-31.451 31.352-31.551h.198c6.25 0 12.104 1.885 17.064 5.061v-3.473h14.485v29.962zm-14.485 3.373v-6.549c-1.587-7.938-8.631-13.988-17.064-13.988h-.198c-9.425.098-17.164 7.838-17.164 17.262 0 9.525 7.739 17.264 17.164 17.363h.198c8.432 0 15.476-6.15 17.064-14.088z"/></g></svg>