<svg xmlns="http://www.w3.org/2000/svg" width="271.598" height="88.5"><path fill="#FFF" d="M266.793 8.935c-2.838-.981-4.548-1.144-4.948-1.168a8.067 8.067 0 0 0-2.83-2.096c-3.125-1.39-5.074-1.498-5.598-1.498a3.78 3.78 0 0 0-1.55.333 7.723 7.723 0 0 0-5.534-2.333c-4.27 0-7.743 3.474-7.743 7.744a7.77 7.77 0 0 0 3.22 6.28c-2.134 1.011-4.484 1.93-7.019 2.742-8.245 2.643-16.893 4.315-17.252 4.385a3.815 3.815 0 0 0-2.018 6.432h-2.029v-7.172a3.832 3.832 0 0 0-3.826-3.828h-7.5a3.831 3.831 0 0 0-3.826 3.828v7.172h-7.007c-6.634 0-11.947 2.585-14.754 7.044a15.91 15.91 0 0 0-3.801-4.003c-3.864-2.857-9.218-3.107-13.933-3.118v.004a416.07 416.07 0 0 0-.551-.008c-4.764.015-10.168.269-14.029 3.122-1.992 1.473-3.583 3.36-4.755 5.636-1.172-2.276-2.764-4.164-4.756-5.636-3.305-2.443-7.631-2.979-13.025-3.029a4.69 4.69 0 0 0-.292-.012h-39.02c-3.933 0-8.364 1.942-10.603 6.205a15.817 15.817 0 0 0-3.203-3.163c-3.859-2.853-9.264-3.107-14.031-3.122h-.491c-4.557.015-9.694.254-13.502 2.78a3.833 3.833 0 0 0-3.681-2.784h-7.938a3.837 3.837 0 0 0-2.829 1.251s-5.808 6.384-8.729 9.59V23.25a3.832 3.832 0 0 0-3.827-3.827H6.25a3.832 3.832 0 0 0-3.827 3.827v43.167a3.83 3.83 0 0 0 3.827 3.826h7.333a3.83 3.83 0 0 0 3.827-3.826v-7.106c3.032 3.055 7.387 7.411 9.493 9.516l.3.301a3.805 3.805 0 0 0 2.702 1.116h8.063a3.82 3.82 0 0 0 3.265-1.829c3.425 1.874 8.022 2.209 12.072 2.27.128.011.262.018.417.018l.603-.006.675.004c.128 0 .248-.005.375-.016 4.564-.072 9.688-.482 13.166-2.933A16.828 16.828 0 0 0 70.34 66.3v.366a3.83 3.83 0 0 0 3.827 3.826h23.146c2.457 0 4.689-.781 6.485-2.219V80a3.831 3.831 0 0 0 3.828 3.826h7.334A3.83 3.83 0 0 0 118.787 80v-9.299h1.07c5.528 0 11.151-.356 14.828-2.947 1.438-1.013 3.329-2.595 4.828-5.401 1.498 2.805 3.389 4.388 4.827 5.402 3.491 2.458 8.649 2.862 13.135 2.929.127.011.259.018.428.018l.591-.006.675.006c.128 0 .248-.005.375-.016 4.564-.072 9.688-.482 13.166-2.933a17.08 17.08 0 0 0 1.717-1.371v.285a3.83 3.83 0 0 0 3.826 3.826h7.5a3.83 3.83 0 0 0 3.826-3.826V45.083c0-.945 0-1.922 4.507-1.922h4.257V55.75c0 8.818 6.795 14.743 16.909 14.743h28.563c6.387 0 10.847-5.103 10.847-12.409 0-6.05-3.096-10.006-9.465-12.095-2.24-.735-4.592-1.38-6.937-2.023-.786-.216-1.558-.428-2.307-.638h14.882a3.831 3.831 0 0 0 3.826-3.828v-5.916a3.832 3.832 0 0 0-3.826-3.828h-6.759c4.07-.687 8.665-1.677 13.59-3.127 9.138-2.69 13.825-6.405 13.932-11.041.078-3.402-2.436-5.834-4.805-6.653zM33.282 56.007a1219.652 1219.652 0 0 1-3.833-4.024c-.437-.462-.825-.857-1.166-1.207a36.955 36.955 0 0 1-.9-.94c.32-.461 1.284-1.506 1.951-2.229l.164-.178a590.288 590.288 0 0 0 4.217-4.631c-.571 2.293-.854 4.877-.854 7.765-.001 1.949.14 3.766.421 5.444zm26.941-.079c-.383 1.1-.872 1.775-5.845 1.806-5.017-.03-5.506-.706-5.889-1.806-.912-2.614-1.229-7.681-.289-10.549.814-2.488 4.206-2.862 6.156-2.864 1.95.001 5.342.376 6.157 2.864.939 2.867.621 7.934-.29 10.549zm14.928 1.496c.318-1.408.528-2.929.629-4.55 2.648 1.625 6.051 2.563 9.842 3.607 1.281.354 2.355.667 3.254.942H75.151zm28.646-8.864c-1.364-1.048-3.057-1.899-5.104-2.57-2.26-.742-4.628-1.392-6.919-2.019-.792-.217-1.569-.43-2.324-.643h14.347v5.232zm22.57 7.368c-.448 1.285-1.162 1.809-6.511 1.809h-1.07v-14.41h1.671c4.713.068 5.722.598 6.199 2.052.939 2.866.622 7.934-.289 10.549zm38.024 0c-.384 1.1-.872 1.775-5.846 1.806-5.017-.03-5.507-.705-5.89-1.804-.911-2.616-1.229-7.685-.291-10.551.815-2.488 4.207-2.862 6.157-2.864 1.95.001 5.343.376 6.158 2.863.938 2.867.621 7.935-.288 10.55zm53.608 1.163c-4.507 0-4.507-.979-4.507-1.924V43.161h3.365c.386 9.219 7.298 11.125 15.266 13.321.791.218 1.503.421 2.144.609h-16.268zm2.924-26.231a78.853 78.853 0 0 0 3.333-.228c-.898.356-1.746.813-2.522 1.369a3.844 3.844 0 0 0-.811-1.141z"/><g fill="#F1F2F2"><path d="M13.583 22.258H6.25a.992.992 0 0 0-.992.992v43.167c0 .548.444.992.992.992h7.333a.992.992 0 0 0 .992-.992V23.25a.991.991 0 0 0-.992-.992zm13.808 31.674a91.733 91.733 0 0 0-1.133-1.172c-1.479-1.51-1.792-1.862-1.792-2.802 0-1.209.532-1.832 2.785-4.273l.164-.178c3.923-4.252 10.17-11.277 10.233-11.348a.994.994 0 0 0-.741-1.651h-7.938a.992.992 0 0 0-.734.325c-.109.12-10.892 11.975-11.959 13.125-.508.547-1.361 1.795-1.361 4 0 2.221.756 3.502 1.391 4.187 1.083 1.166 12.418 12.492 12.9 12.975a.99.99 0 0 0 .701.29h8.063a.991.991 0 0 0 .714-1.681c-.074-.076-7.326-7.605-11.293-11.797z"/><path d="M66.926 35.077c-3.165-2.339-8.028-2.554-12.351-2.566a16.134 16.134 0 0 0-.44 0c-4.32.013-9.185.227-12.351 2.566-4.098 3.029-6.09 8.094-6.09 15.485 0 9.475 3.486 13.026 6.108 14.874 2.87 2.021 7.52 2.355 11.701 2.419.066.007.133.012.207.012l.64-.006.65.006c.073 0 .14-.005.218-.014 4.17-.062 8.821-.396 11.69-2.417 2.622-1.848 6.108-5.399 6.108-14.874 0-7.391-1.992-12.456-6.09-15.485zm-4.027 21.784c-1.085 3.115-3.622 3.677-8.538 3.706-4.928-.029-7.464-.591-8.549-3.706-1.085-3.112-1.467-8.823-.307-12.365 1.37-4.184 6.132-4.813 8.85-4.816 2.718.003 7.48.632 8.851 4.816 1.16 3.542.778 9.253-.307 12.365zm108.194-21.784c-3.165-2.339-8.028-2.554-12.351-2.566a16.06 16.06 0 0 0-.439 0c-4.32.013-9.187.227-12.352 2.566-4.098 3.029-6.09 8.094-6.09 15.485 0 9.475 3.486 13.026 6.108 14.874 2.87 2.021 7.52 2.355 11.701 2.419.066.007.133.012.207.012l.639-.006.649.006c.073 0 .141-.005.218-.014 4.171-.062 8.821-.396 11.69-2.417 2.622-1.848 6.108-5.399 6.108-14.874.002-7.391-1.991-12.456-6.088-15.485zm-4.027 21.784c-1.086 3.115-3.623 3.677-8.539 3.706-4.927-.029-7.463-.591-8.55-3.706-1.084-3.113-1.466-8.825-.307-12.365 1.371-4.184 6.133-4.813 8.851-4.816 2.718.003 7.48.632 8.852 4.816 1.159 3.542.777 9.253-.307 12.365zM133.07 35.077c-2.694-1.992-6.555-2.433-11.507-2.478a1.526 1.526 0 0 0-.125-.008H82.417c-3.433 0-9.242 2.052-9.242 9.742 0 7.446 4.286 8.958 13.202 11.416 8.785 2.423 9.464 3.325 9.464 4.335 0 1.714 0 2.174-2.904 2.174h-18.77a.992.992 0 0 0-.992.992v5.417c0 .548.444.992.992.992h23.146c4.718 0 8.013-3.938 8.013-9.575 0-4.798-2.318-7.697-7.516-9.401-2.196-.721-4.527-1.359-6.781-1.978-2.563-.703-4.983-1.367-6.94-2.075-1.509-.547-1.862-1.781-1.706-2.671.119-.676.603-1.466 1.577-1.466h22.674V80c0 .548.444.992.992.992h7.333a.992.992 0 0 0 .992-.992V67.867h3.904c5.062 0 10.164-.295 13.196-2.431 2.623-1.848 6.109-5.4 6.109-14.874 0-7.391-1.992-12.456-6.09-15.485zm-4.027 21.784c-1.206 3.459-4.275 3.709-9.188 3.709h-3.904V40.492h4.535c4.299.061 7.682.395 8.864 4.004 1.16 3.542.778 9.253-.307 12.365zm121.79-24.27h-21.916c-3.433 0-9.242 2.052-9.242 9.742 0 7.446 4.286 8.958 13.202 11.416 8.785 2.423 9.464 3.325 9.464 4.335 0 1.108 0 1.841-2.904 1.841h-21.438c-6.451 0-7.341-2.287-7.341-4.758V40.326h7.592a.992.992 0 0 0 .992-.992v-5.75a.992.992 0 0 0-.992-.992h-7.592V22.583a.992.992 0 0 0-.992-.992h-7.5a.992.992 0 0 0-.992.992v10.008h-9.841c-8.551 0-14.075 4.674-14.075 11.909v22.167c0 .548.444.992.992.992h7.5a.992.992 0 0 0 .992-.992V45.083c0-2.471.89-4.757 7.341-4.757h7.091V55.75c0 7.234 5.524 11.909 14.075 11.909h28.563c4.718 0 8.013-3.938 8.013-9.575 0-4.798-2.318-7.697-7.516-9.401-2.196-.721-4.527-1.359-6.782-1.978-2.563-.703-4.982-1.367-6.939-2.075-1.51-.547-1.862-1.781-1.706-2.671.119-.676.604-1.466 1.577-1.466h20.374a.992.992 0 0 0 .992-.992v-5.917a.993.993 0 0 0-.992-.993zm-4.5-17.765c2.707 0 4.909-2.202 4.909-4.909s-2.202-4.909-4.909-4.909-4.909 2.202-4.909 4.909 2.202 4.909 4.909 4.909z"/><path d="M265.866 11.614c-2.708-.937-4.188-1.019-4.249-1.021l-.049-.001a.995.995 0 0 0-.938.667c-.466-1.481-1.674-2.511-2.769-2.998-2.738-1.217-4.278-1.252-4.445-1.252a.991.991 0 0 0-.912.616c-.153.37-.065.801.218 1.085.227.228 1.288 1.452-.023 3.249-1.854 2.541-7.43 6.6-17.043 9.682-8.547 2.74-17.502 4.453-17.591 4.47a.991.991 0 0 0 .155 1.967s.17.005.497.005c.932 0 3.525-.047 7.325-.475a.981.981 0 0 0 .92.804s.356.014 1.03.014c3.179 0 14.649-.326 28.87-4.513 9.74-2.868 11.847-6.145 11.898-8.389.049-1.983-1.467-3.417-2.894-3.91zm-5.238 3.391c-.419.505-.948 1.008-1.566 1.506 1.282-1.407 1.725-2.703 1.77-3.773.008-.186-.013-.358-.027-.534a.97.97 0 0 0 .194.19c.003.002.35.281.413.756.067.515-.204 1.156-.784 1.855z"/></g><linearGradient id="a" gradientUnits="userSpaceOnUse" x1="9.916" y1="66.417" x2="9.916" y2="23.25"><stop offset="0" stop-color="#ffc20e"/><stop offset="1" stop-color="#fff200"/></linearGradient><path fill="url(#a)" d="M6.25 23.25h7.333v43.167H6.25z"/><linearGradient id="b" gradientUnits="userSpaceOnUse" x1="26.938" y1="78.417" x2="26.938" y2="33.996"><stop offset="0" stop-color="#02205f"/><stop offset="1" stop-color="#0054a6"/></linearGradient><path fill="url(#b)" d="M23.474 49.958c0-1.683.846-2.559 3.212-5.124C30.648 40.54 36.906 33.5 36.906 33.5h-7.938S18.085 45.466 17.002 46.633c-.547.589-1.096 1.68-1.096 3.325 0 1.823.578 2.921 1.125 3.511 1.083 1.166 12.875 12.948 12.875 12.948h8.063s-7.282-7.56-11.298-11.804c-2.311-2.441-3.197-2.972-3.197-4.655z"/><linearGradient id="c" gradientUnits="userSpaceOnUse" x1="54.356" y1="66.875" x2="54.356" y2="33.501"><stop offset="0" stop-color="#ffc20e"/><stop offset="1" stop-color="#fff200"/></linearGradient><path fill="url(#c)" d="M66.336 35.875c-2.809-2.076-7.287-2.36-11.804-2.372-.011 0-.021-.003-.032-.003l-.145.001-.144-.001c-.011 0-.021.003-.032.003-4.517.012-8.996.296-11.804 2.372-2.875 2.125-5.688 6-5.688 14.688s2.938 12.125 5.688 14.063c2.48 1.747 6.591 2.17 11.133 2.236.071.002.131.014.204.014.217 0 .429-.005.644-.006.216.001.427.006.645.006.072 0 .133-.012.203-.014 4.542-.066 8.653-.489 11.133-2.236 2.75-1.938 5.688-5.375 5.688-14.063S69.211 38 66.336 35.875zm-2.5 21.313c-1.374 3.942-4.864 4.345-9.481 4.372-4.617-.027-8.106-.43-9.48-4.372-1.188-3.41-1.5-9.375-.313-13 1.403-4.283 5.922-5.496 9.793-5.5 3.871.004 8.391 1.216 9.793 5.5 1.188 3.625.877 9.589-.312 13z"/><linearGradient id="d" gradientUnits="userSpaceOnUse" x1="158.522" y1="78.625" x2="158.522" y2="34.249"><stop offset="0" stop-color="#02205f"/><stop offset="1" stop-color="#0054a6"/></linearGradient><path fill="url(#d)" d="M170.503 35.875c-2.809-2.076-7.287-2.36-11.804-2.372-.012 0-.021-.003-.033-.003l-.145.001-.144-.001c-.011 0-.021.003-.032.003-4.518.012-8.996.296-11.805 2.372-2.875 2.125-5.688 6-5.688 14.688s2.938 12.125 5.688 14.063c2.48 1.747 6.592 2.17 11.133 2.236.071.002.131.014.204.014.218 0 .429-.005.644-.006.217.001.428.006.645.006.072 0 .133-.012.203-.014 4.543-.066 8.654-.489 11.134-2.236 2.75-1.938 5.688-5.375 5.688-14.063S173.378 38 170.503 35.875zm-2.5 21.313c-1.374 3.942-4.864 4.345-9.481 4.372-4.616-.027-8.105-.43-9.48-4.372-1.188-3.41-1.5-9.375-.313-13 1.403-4.283 5.923-5.496 9.793-5.5 3.871.004 8.391 1.216 9.794 5.5 1.187 3.625.875 9.589-.313 13z"/><linearGradient id="e" gradientUnits="userSpaceOnUse" x1="106.168" y1="80" x2="106.168" y2="33.584"><stop offset="0" stop-color="#02205f"/><stop offset="1" stop-color="#0054a6"/></linearGradient><path fill="url(#e)" d="M132.48 35.875c-2.638-1.95-6.75-2.248-10.982-2.284-.021 0-.039-.007-.061-.007H82.416c-3.25 0-8.25 1.917-8.25 8.75 0 6.583 3.478 7.979 12.474 10.459 9.292 2.563 10.192 3.582 10.192 5.291 0 2.166-.333 3.166-3.896 3.166h-18.77v5.417h23.146c4.625 0 7.021-4.083 7.021-8.583 0-4-1.688-6.771-6.833-8.459-4.661-1.528-10.015-2.71-13.75-4.063-3.624-1.313-2.791-6.063.209-6.063h23.666V80h7.333V66.875h4.896c5.125 0 9.875-.313 12.625-2.25s5.688-5.375 5.688-14.063S135.355 38 132.48 35.875zm-2.5 21.313c-1.438 4.125-5.188 4.375-10.125 4.375h-4.896V39.5h5.542c4.375.063 8.387.397 9.792 4.688 1.187 3.625.875 9.589-.313 13z"/><linearGradient id="f" gradientUnits="userSpaceOnUse" x1="214.541" y1="66.667" x2="214.541" y2="22.584"><stop offset="0" stop-color="#ffc20e"/><stop offset="1" stop-color="#fff200"/></linearGradient><path fill="url(#f)" d="M230.459 39.5h20.374v-5.917h-21.916c-3.25 0-8.25 1.917-8.25 8.75 0 6.583 3.478 7.979 12.474 10.459 9.292 2.563 10.192 3.582 10.192 5.291 0 1.583-.333 2.833-3.896 2.833h-21.438c-5.167 0-8.333-1.333-8.333-5.75V39.333h8.584v-5.75h-8.584v-11h-7.5v11h-10.833c-7 0-13.083 3.417-13.083 10.917v22.167h7.5V45.083c0-4.417 3.166-5.75 8.333-5.75h8.083V55.75c0 7.5 6.083 10.917 13.083 10.917h28.563c4.625 0 7.021-4.083 7.021-8.583 0-4-1.688-6.771-6.833-8.459-4.661-1.528-10.015-2.71-13.75-4.063-3.624-1.312-2.791-6.062.209-6.062z"/><linearGradient id="g" gradientUnits="userSpaceOnUse" x1="246.333" y1="13.834" x2="246.333" y2="6"><stop offset="0" stop-color="#02205f"/><stop offset="1" stop-color="#0054a6"/></linearGradient><circle fill="url(#g)" cx="246.333" cy="9.917" r="3.917"/><linearGradient id="h" gradientUnits="userSpaceOnUse" x1="239.047" y1="27.088" x2="239.047" y2="8"><stop offset="0" stop-color="#02205f"/><stop offset="1" stop-color="#0054a6"/></linearGradient><path fill="url(#h)" d="M253.417 8s2 1.917.084 4.542c-2.287 3.133-8.421 7.118-17.542 10.042-8.708 2.792-17.709 4.5-17.709 4.5s12.792.375 29.876-5.583c15.004-5.233 12.452-10.946 9.333-12.333C254.834 8 253.417 8 253.417 8z"/><linearGradient id="i" gradientUnits="userSpaceOnUse" x1="247.385" y1="27.431" x2="247.385" y2="11.583"><stop offset="0" stop-color="#ffc20e"/><stop offset="1" stop-color="#fff200"/></linearGradient><path fill="url(#i)" d="M261.568 11.583s2.015 1.417-.178 4.056c-2.196 2.644-7.342 5.685-16.308 8.111C236.523 26.066 227 27.417 227 27.417s12.79.485 29.583-4.459c14.749-4.342 11.583-9.5 8.959-10.407-2.605-.901-3.974-.968-3.974-.968z"/></svg>