<svg xmlns="http://www.w3.org/2000/svg" width="623.622" height="623.622" viewBox="109.134 -14.17 623.622 623.622"><path fill="#F4B459" d="M420.944 0c164.37 0 297.642 133.268 297.642 297.641 0 164.392-133.27 297.64-297.642 297.64-164.373 0-297.639-133.25-297.639-297.64C123.305 133.268 256.555 0 420.944 0z"/><path fill="#FFF" d="M346.554 334.771c-20.556 0-37.243 16.668-37.243 37.244 0 20.574 16.668 37.242 37.243 37.242 20.575 0 37.243-16.668 37.243-37.242 0-20.576-16.67-37.244-37.243-37.244zm-10.995-92.9c-14.455 0-26.156 11.701-26.156 26.156 0 14.435 11.701 26.155 26.156 26.155 49.035 0 88.939 39.902 88.939 88.939 0 14.434 11.701 26.156 26.174 26.156 14.416 0 26.154-11.719 26.154-26.156 0-77.891-63.377-141.25-141.267-141.25zm.502-93.032c-14.77 0-26.75 11.98-26.75 26.75s11.98 26.75 26.75 26.75c99.356 0 180.204 80.829 180.204 180.184 0 14.771 11.961 26.752 26.75 26.752 14.787 0 26.75-12 26.75-26.752-.019-128.86-104.861-233.684-233.704-233.684z"/></svg>