<svg xmlns="http://www.w3.org/2000/svg" width="623.622" height="623.622" viewBox="109.134 -14.17 623.622 623.622"><path fill="#26A6D1" d="M420.944 0c164.392 0 297.642 133.268 297.642 297.641 0 164.392-133.25 297.64-297.642 297.64-164.391 0-297.639-133.25-297.639-297.64C123.305 133.268 256.555 0 420.944 0z"/><path fill="#FFF" d="M607.025 200.517c-13.002 5.617-26.992 9.394-41.668 11.105 14.994-8.725 26.49-22.51 31.904-38.971a147.075 147.075 0 0 1-46.08 17.095c-13.227-13.672-32.07-22.211-52.941-22.211-40.033 0-72.512 31.495-72.512 70.373 0 5.525.633 10.901 1.877 16.055-60.272-2.938-113.735-30.974-149.488-73.554-6.251 10.399-9.823 22.471-9.823 35.382 0 24.406 12.798 45.984 32.257 58.58-11.905-.372-23.068-3.517-32.87-8.817v.893c0 34.117 25.001 62.561 58.188 69.033a74.915 74.915 0 0 1-19.106 2.475c-4.669 0-9.208-.426-13.635-1.264 9.226 27.979 36.015 48.328 67.769 48.889-24.833 18.898-56.105 30.135-90.091 30.135-5.86 0-11.627-.334-17.32-.984 32.126 19.979 70.226 31.643 111.206 31.643 133.417 0 206.376-107.299 206.376-200.313l-.205-9.116c14.137-9.901 26.433-22.29 36.162-36.428z"/></svg>