<svg xmlns="http://www.w3.org/2000/svg" width="623.622" height="623.622" viewBox="109.134 -14.17 623.622 623.622"><path fill="#C4302B" d="M420.944 0c164.392 0 297.642 133.268 297.642 297.641 0 164.372-133.25 297.64-297.642 297.64-164.391 0-297.639-133.27-297.639-297.64C123.305 133.271 256.555 0 420.944 0z"/><path fill="#FFF" d="M413.763 241.85c9.412 0 16.781-2.996 22.176-7.254 5.357-4.279 8.035-10.101 8.035-17.579v-45.131c0-6.641-2.732-12.129-8.186-16.351-5.488-4.224-12.5-6.324-21.096-6.324-9.393 0-16.909 1.99-22.471 5.989-5.581 4.017-8.372 9.375-8.372 16.165v45.278c0 7.44 2.716 13.319 8.147 17.729s12.709 7.478 21.767 7.478zm-9.839-68.288c0-1.712.893-3.087 2.661-4.185 1.786-1.061 4.093-1.582 6.921-1.582 3.087 0 5.581.521 7.46 1.582 1.898 1.098 2.828 2.475 2.828 4.185v42.897c0 2.121-.93 3.795-2.792 5.004-1.859 1.191-4.353 1.804-7.497 1.804-3.069 0-5.45-.576-7.107-1.786-1.637-1.173-2.475-2.847-2.475-5.023v-42.896zm72.122 68.233c3.311 0 6.678-1.898 10.176-3.794 3.535-1.935 6.9-4.763 10.139-8.445v10.027h17.58V149.08h-17.58v68.699c-1.637 1.953-3.459 3.572-5.412 4.855-1.99 1.265-3.627 1.917-4.91 1.917-1.656 0-2.865-.466-3.572-1.451-.744-.948-1.152-2.493-1.152-4.614v-69.388h-17.543v75.62c0 5.395 1.061 9.433 3.088 12.111 2.061 2.696 5.112 4.966 9.186 4.966zm51.12 37.411H314.724c-33.782 0-61.147 26.323-61.147 58.747v49.67c0 32.443 27.365 58.766 61.147 58.766h212.439c33.764 0 61.146-26.322 61.146-58.766v-49.67c.003-32.426-27.38-58.747-61.143-58.747zm-180.837 50.413h-18.787v77.795h-18.174v-77.795h-18.789v-13.264h55.752c-.002 0-.002 13.264-.002 13.264zm56.069 78.875H382.81v-8.074c-3.646 2.979-7.385 5.264-11.329 6.791-3.889 1.6-7.683 2.361-11.365 2.361-4.539 0-7.924-1.098-10.231-3.311-2.271-2.176-3.441-5.449-3.441-9.822v-61.424h19.588v56.346c0 1.75.409 2.979 1.191 3.758.856.799 2.213 1.152 4.038 1.152 1.414 0 3.273-.502 5.468-1.545a25.068 25.068 0 0 0 6.083-3.943v-55.789H402.4c-.002 0-.002 73.5-.002 73.5zm74.148-13.991c0 4.818-1.525 8.482-4.557 11.07-2.996 2.584-7.422 3.85-13.133 3.85-3.813 0-7.199-.484-10.139-1.469a25.53 25.53 0 0 1-8.279-4.615v5.209h-19.55v-92.193h19.55v29.709c2.643-2.045 5.414-3.646 8.297-4.725a25.45 25.45 0 0 1 8.93-1.619c6.119 0 10.789 1.434 14.008 4.316 3.256 2.902 4.873 7.162 4.873 12.725v37.742zm74.524-20.742h-36.09v13.283c0 3.701.596 6.268 1.842 7.719 1.266 1.434 3.404 2.141 6.4 2.141 3.162 0 5.32-.613 6.586-1.824 1.229-1.227 1.898-3.887 1.898-8.055v-3.199h19.402v3.609c0 7.217-2.326 12.65-7.127 16.314-4.723 3.645-11.793 5.467-21.188 5.467-8.463 0-15.123-1.936-19.979-5.803-4.836-3.832-7.293-9.189-7.293-15.961V355.79c0-6.084 2.68-11.105 8.037-14.955 5.34-3.832 12.186-5.75 20.648-5.75 8.631 0 15.273 1.787 19.924 5.34 4.633 3.555 6.939 8.688 6.939 15.348l.001 17.988zM335.802 242.057h22.193v-54.079l25.838-76.27h-22.565l-13.729 52.125h-1.414l-14.398-52.125h-22.379l26.452 78.708c.002 0 .002 51.641.002 51.641zm112.729 108.45l-4.111.67-3.998 2.066v42.377c1.563 1.098 3.105 1.934 4.596 2.398l4.67.725c2.379 0 4.111-.465 5.227-1.449 1.098-.949 1.674-2.512 1.674-4.652v-35.141c0-2.324-.652-4.055-2.027-5.227-1.416-1.169-3.406-1.767-6.031-1.767z"/><path fill="#FFF" d="M524.263 347.419c-3.014 0-5.152.635-6.473 1.936-1.301 1.246-1.936 3.367-1.936 6.324v7.107h16.688v-7.107c0-2.957-.689-5.059-1.99-6.324-1.285-1.301-3.424-1.936-6.289-1.936z"/></svg>